<svg width="46" height="28" viewBox="0 0 46 28" fill="none" xmlns="http://www.w3.org/2000/svg">
<path d="M17.2539 13.317C17.4359 13.317 17.5759 13.401 17.6739 13.569C17.7859 13.737 17.8419 13.968 17.8419 14.262C17.8419 14.808 17.7089 15.242 17.4429 15.564C16.6589 16.502 15.8959 17.16 15.1539 17.538C14.4259 17.916 13.5439 18.105 12.5079 18.105C11.7799 18.105 11.1079 18.014 10.4919 17.832C9.87592 17.65 9.12692 17.377 8.24492 17.013C7.44692 16.663 6.67692 16.376 5.93492 16.152C5.22092 17.454 4.14992 18.105 2.72192 18.105C1.93792 18.105 1.31492 17.93 0.852916 17.58C0.376916 17.216 0.138916 16.754 0.138916 16.194C0.138916 15.508 0.467916 14.941 1.12592 14.493C1.78392 14.031 2.65892 13.8 3.75092 13.8H4.02392L4.40192 7.68902C4.48592 6.28902 4.73792 5.13402 5.15792 4.22402C5.57792 3.31402 6.15892 2.53702 6.90092 1.89302C7.54492 1.33302 8.27992 0.913016 9.10592 0.633017C9.93192 0.339016 10.8069 0.192017 11.7309 0.192017C13.2429 0.192017 14.4049 0.584016 15.2169 1.36802C16.0289 2.15202 16.4349 3.17402 16.4349 4.43402C16.4349 5.28802 16.2809 5.98102 15.9729 6.51302C15.6649 7.03102 15.2379 7.29002 14.6919 7.29002C14.2999 7.29002 13.9919 7.19902 13.7679 7.01702C13.5439 6.82102 13.4319 6.54802 13.4319 6.19802C13.4319 6.07202 13.4599 5.84102 13.5159 5.50502C13.5999 5.11302 13.6419 4.76302 13.6419 4.45502C13.6419 3.86702 13.4669 3.40502 13.1169 3.06902C12.7809 2.71902 12.2629 2.54402 11.5629 2.54402C10.3309 2.54402 9.37892 2.95002 8.70692 3.76202C8.03492 4.56002 7.60792 5.82002 7.42592 7.54202L6.94292 12.309C6.87292 12.981 6.78192 13.562 6.66992 14.052C7.56592 14.206 8.68592 14.451 10.0299 14.787C10.8139 14.983 11.4159 15.123 11.8359 15.207C12.2559 15.291 12.6269 15.333 12.9489 15.333C13.7609 15.333 14.4539 15.2 15.0279 14.934C15.6159 14.654 16.1689 14.213 16.6869 13.611C16.8549 13.415 17.0439 13.317 17.2539 13.317Z" fill="white"/>
<path d="M28.5294 11.553C28.7114 11.553 28.8514 11.644 28.9494 11.826C29.0474 12.008 29.0964 12.239 29.0964 12.519C29.0964 13.191 28.8934 13.59 28.4874 13.716C27.6474 14.01 26.7234 14.178 25.7154 14.22C25.4494 15.396 24.9244 16.341 24.1404 17.055C23.3564 17.755 22.4674 18.105 21.4734 18.105C20.6334 18.105 19.9124 17.902 19.3104 17.496C18.7224 17.09 18.2744 16.551 17.9664 15.879C17.6584 15.207 17.5044 14.479 17.5044 13.695C17.5044 12.631 17.7074 11.686 18.1134 10.86C18.5194 10.02 19.0794 9.36902 19.7934 8.90702C20.5074 8.43102 21.2984 8.19302 22.1664 8.19302C23.2304 8.19302 24.0844 8.56402 24.7284 9.30602C25.3864 10.034 25.7714 10.937 25.8834 12.015C26.5414 11.973 27.3254 11.833 28.2354 11.595C28.3474 11.567 28.4454 11.553 28.5294 11.553ZM21.6414 15.879C22.0894 15.879 22.4744 15.697 22.7964 15.333C23.1324 14.969 23.3564 14.444 23.4684 13.758C23.0344 13.464 22.6984 13.079 22.4604 12.603C22.2364 12.127 22.1244 11.623 22.1244 11.091C22.1244 10.867 22.1454 10.643 22.1874 10.419H22.0824C21.5224 10.419 21.0534 10.692 20.6754 11.238C20.3114 11.77 20.1294 12.526 20.1294 13.506C20.1294 14.276 20.2764 14.864 20.5704 15.27C20.8784 15.676 21.2354 15.879 21.6414 15.879Z" fill="white"/>
<path d="M38.046 13.359C38.228 13.359 38.368 13.45 38.466 13.632C38.578 13.8 38.634 14.017 38.634 14.283C38.634 14.605 38.585 14.857 38.487 15.039C38.389 15.221 38.235 15.382 38.025 15.522C36.821 16.334 35.9391 16.936 35.3791 17.328L34.035 18.231C33.503 21.129 32.8031 23.404 31.935 25.056C31.081 26.722 29.989 27.555 28.659 27.555C27.945 27.555 27.364 27.331 26.916 26.883C26.468 26.449 26.244 25.875 26.244 25.161C26.244 24.167 26.636 23.096 27.42 21.948C28.2041 20.814 29.674 19.414 31.83 17.748L31.956 16.929C31.7181 17.307 31.403 17.601 31.011 17.811C30.633 18.007 30.255 18.105 29.877 18.105C29.009 18.105 28.316 17.79 27.798 17.16C27.2801 16.53 27.021 15.704 27.021 14.682C27.021 13.562 27.2801 12.505 27.798 11.511C28.316 10.503 29.002 9.69802 29.856 9.09602C30.724 8.48002 31.641 8.17202 32.607 8.17202C32.915 8.17202 33.118 8.23502 33.216 8.36102C33.328 8.47302 33.419 8.68302 33.489 8.99102C33.755 8.93502 34.063 8.90702 34.413 8.90702C34.763 8.90702 35.008 8.96302 35.148 9.07502C35.302 9.17302 35.3791 9.37602 35.3791 9.68402C35.3791 9.85202 35.372 9.98502 35.358 10.083C35.302 10.517 35.127 11.616 34.833 13.38C34.7771 13.716 34.7141 14.087 34.6441 14.493C34.5881 14.885 34.525 15.305 34.455 15.753C35.533 14.913 36.569 14.171 37.563 13.527C37.745 13.415 37.906 13.359 38.046 13.359ZM30.633 15.984C30.955 15.984 31.263 15.788 31.557 15.396C31.851 15.004 32.0611 14.444 32.187 13.716L32.859 10.125C32.285 10.139 31.753 10.363 31.2631 10.797C30.7731 11.217 30.3811 11.777 30.087 12.477C29.793 13.177 29.646 13.919 29.646 14.703C29.646 15.137 29.73 15.459 29.898 15.669C30.08 15.879 30.325 15.984 30.633 15.984ZM28.89 25.518C29.24 25.518 29.632 25.098 30.066 24.258C30.514 23.418 30.941 22.081 31.347 20.247C30.2691 21.171 29.492 22.004 29.016 22.746C28.54 23.488 28.302 24.139 28.302 24.699C28.302 24.937 28.344 25.133 28.428 25.287C28.526 25.441 28.68 25.518 28.89 25.518Z" fill="white"/>
<path d="M40.8919 18.105C40.0659 18.105 39.3589 17.902 38.7709 17.496C38.1969 17.076 37.7629 16.53 37.4689 15.858C37.1749 15.186 37.0279 14.465 37.0279 13.695C37.0279 12.631 37.2239 11.686 37.6159 10.86C38.0219 10.02 38.5679 9.36902 39.2539 8.90702C39.9399 8.43102 40.7099 8.19302 41.5639 8.19302C42.3899 8.19302 43.0969 8.40302 43.6849 8.82302C44.2729 9.22902 44.7139 9.76802 45.0079 10.44C45.3019 11.112 45.4489 11.833 45.4489 12.603C45.4489 13.667 45.2459 14.619 44.8399 15.459C44.4339 16.285 43.8809 16.936 43.1809 17.412C42.4949 17.874 41.7319 18.105 40.8919 18.105ZM41.1229 15.837C41.5989 15.837 41.9979 15.578 42.3199 15.06C42.6559 14.542 42.8239 13.786 42.8239 12.792C42.8239 12.022 42.6839 11.441 42.4039 11.049C42.1239 10.657 41.7879 10.461 41.3959 10.461C40.8919 10.461 40.4719 10.72 40.1359 11.238C39.8139 11.742 39.6529 12.498 39.6529 13.506C39.6529 14.304 39.7929 14.892 40.0729 15.27C40.3529 15.648 40.7029 15.837 41.1229 15.837Z" fill="white"/>
</svg>
